<?xml version="1.0" standalone="no"?>
<!DOCTYPE svg PUBLIC "-//W3C//DTD SVG 20010904//EN"
 "http://www.w3.org/TR/2001/REC-SVG-20010904/DTD/svg10.dtd">
<svg version="1.0" xmlns="http://www.w3.org/2000/svg"
 width="1674.000000pt" height="1674.000000pt" viewBox="0 0 1674.000000 1674.000000"
 preserveAspectRatio="xMidYMid meet">
<metadata>
Created by potrace 1.11, written by Peter Selinger 2001-2013
</metadata>
<g transform="translate(0.000000,1674.000000) scale(0.100000,-0.100000)"
fill="#000000" stroke="none">
<path d="M7934 16692 c-40 -32 -44 -54 -44 -259 l0 -199 -1942 -507 -1943
-508 -276 1 -276 0 -27 -26 c-38 -38 -36 -95 3 -135 l29 -29 165 0 165 0 99
-152 c569 -873 968 -1800 1182 -2745 76 -335 129 -696 163 -1098 16 -193 16
-834 0 -1030 -97 -1176 -393 -2210 -977 -3412 -87 -180 -112 -223 -131 -227
-30 -8 -79 -92 -95 -163 -10 -43 -9 -59 4 -95 8 -24 18 -71 22 -106 6 -57 4
-65 -19 -92 -32 -38 -40 -97 -32 -224 10 -161 85 -493 147 -647 44 -112 50
-134 58 -221 7 -77 15 -102 59 -192 141 -292 427 -625 680 -795 94 -63 181
-101 274 -118 70 -13 314 -85 342 -101 4 -2 3 -8 -4 -12 -15 -9 931 -542 974
-548 46 -7 212 -78 195 -84 -17 -6 -23 -1 81 -69 47 -31 129 -96 183 -145 183
-166 209 -186 239 -180 40 8 91 -17 106 -52 18 -41 122 -153 194 -208 75 -59
178 -112 229 -120 38 -6 42 -11 69 -71 18 -40 27 -74 25 -91 -5 -24 2 -33 56
-72 81 -60 268 -253 358 -370 99 -128 212 -298 306 -459 68 -117 116 -213 311
-618 101 -209 250 -384 378 -444 308 -144 630 76 1063 726 221 331 429 750
596 1195 60 161 165 478 202 610 l15 56 93 38 c147 61 195 85 287 147 99 67
197 160 206 196 9 33 117 83 178 83 52 0 107 36 161 107 47 62 107 186 109
226 1 27 13 41 72 89 40 32 78 58 86 58 28 0 87 51 135 117 92 125 168 287
143 303 -15 9 48 160 66 160 8 0 14 4 14 8 0 5 25 37 55 72 37 43 60 81 74
124 25 76 52 336 36 342 -16 6 15 124 32 124 51 0 71 176 54 464 -14 236 -33
376 -54 391 -8 5 -19 35 -24 66 -8 47 -7 58 6 66 13 9 16 32 15 134 0 68 -6
136 -12 152 -11 25 -15 27 -72 27 -66 0 -173 31 -263 76 -149 75 -404 237
-578 365 -58 44 -111 79 -118 79 -6 0 -43 21 -81 46 -99 66 -98 74 34 222 892
997 1406 2248 1541 3752 22 244 31 795 16 1060 -55 1000 -284 1935 -652 2660
-106 209 -208 371 -378 601 -13 18 -11 19 31 19 63 0 98 35 98 97 0 33 -6 50
-25 68 -23 24 -28 25 -173 25 -81 0 -152 4 -157 8 -6 5 -902 233 -1992 507
l-1983 499 0 204 0 204 -34 34 c-29 29 -41 34 -82 34 -31 0 -57 -7 -70 -18z
m-44 -1047 l0 -425 -1617 1 c-1047 1 -1606 4 -1583 11 70 19 3185 836 3193
837 4 0 7 -190 7 -424z m1915 0 c908 -228 1655 -417 1660 -419 6 -3 -745 -5
-1667 -5 l-1678 -1 0 426 c0 400 1 425 18 420 9 -3 760 -192 1667 -421z"/>
</g>
</svg>
